<?xml version="1.0" encoding="UTF-8"?>
<svg width="21px" height="19px" viewBox="0 0 21 19" version="1.1" xmlns="http://www.w3.org/2000/svg" xmlns:xlink="http://www.w3.org/1999/xlink">
    <!-- Generator: Sketch 51.2 (57519) - http://www.bohemiancoding.com/sketch -->
    <title>Combined Shape</title>
    <desc>Created with Sketch.</desc>
    <defs></defs>
    <g id="Page-1" stroke="none" stroke-width="1" fill="none" fill-rule="evenodd">
        <g id="Desktop-HD-Copy-3" transform="translate(-401.000000, -9978.000000)" fill="#3A3A40">
            <g id="Contact" transform="translate(41.000000, 9873.000000)">
                <g id="Group-8" transform="translate(360.000000, 101.000000)">
                    <path d="M7.64761542,21.4264095 C7.28398691,21.3659233 7.1385674,21.4836198 6.54702829,21.8918585 C5.90593477,22.3342962 4.93707179,22.7398422 4.45914695,22.8741832 C3.98122212,23.0085242 3.69950644,23.0293303 3.65349575,22.9647968 C3.56278885,22.8375734 3.72574762,22.6583224 3.79406972,22.5702637 C3.89266433,22.4431875 4.45484558,21.7888571 4.66539403,21.4877479 C4.87330964,21.1904039 4.9878649,20.4759816 4.67739365,20.2688437 C1.85740927,18.6768581 0,15.9613395 0,12.8789744 C0,7.97525227 4.70101013,4 10.5,4 C16.2989899,4 21,7.97525227 21,12.8789744 C21,17.7826966 16.2989899,21.7579489 10.5,21.7579489 C9.51133936,21.7579489 8.55459293,21.642403 7.64761542,21.4264095 Z" id="Combined-Shape" transform="translate(10.500000, 13.500000) scale(-1, 1) translate(-10.500000, -13.500000) "></path>
                </g>
            </g>
        </g>
    </g>
</svg>