<?xml version="1.0" encoding="UTF-8"?>
<svg width="42px" height="42px" viewBox="0 0 42 42" version="1.1" xmlns="http://www.w3.org/2000/svg" xmlns:xlink="http://www.w3.org/1999/xlink">
    <!-- Generator: Sketch 51.2 (57519) - http://www.bohemiancoding.com/sketch -->
    <title>Header</title>
    <desc>Created with Sketch.</desc>
    <defs></defs>
    <g id="Page-1" stroke="none" stroke-width="1" fill="none" fill-rule="evenodd">
        <g id="Desktop-HD-Copy-3" transform="translate(-39.000000, -45.000000)" fill="#111115">
            <g id="Header">
                <path d="M60,86 C48.954305,86 40,77.045695 40,66 C40,54.954305 48.954305,46 60,46 C71.045695,46 80,54.954305 80,66 C80,77.045695 71.045695,86 60,86 Z M50.5047388,68.5047388 L57,75 L69.5017548,62.4982452 C70.3247509,61.6752491 70.3284271,60.3284271 69.5,59.5 C68.6657972,58.6657972 67.3261102,58.6744555 66.4948249,59.5064385 L57.0092259,69 L53.502933,65.5001649 C52.6755665,64.6743222 51.3284271,64.6715729 50.5,65.5 C49.6657972,66.3342028 49.6736945,67.6736945 50.5047388,68.5047388 Z" id="Icon"></path>
            </g>
        </g>
    </g>
</svg>