<?xml version="1.0" encoding="UTF-8"?>
<svg width="132px" height="79px" viewBox="0 0 132 79" version="1.1" xmlns="http://www.w3.org/2000/svg" xmlns:xlink="http://www.w3.org/1999/xlink">
    <!-- Generator: Sketch 40.1 (33804) - http://www.bohemiancoding.com/sketch -->
    <title>Icon</title>
    <desc>Created with Sketch.</desc>
    <defs>
        <linearGradient x1="49.1273791%" y1="0%" x2="49.1273791%" y2="98.0548469%" id="linearGradient-1">
            <stop stop-color="#FFFFFF" offset="0%"></stop>
            <stop stop-color="#FFFFFF" offset="100%"></stop>
        </linearGradient>
    </defs>
    <g id="Welcome" stroke="none" stroke-width="1" fill="none" fill-rule="evenodd">
        <g id="Desktop-Copy" transform="translate(-574.000000, -361.000000)" fill="url(#linearGradient-1)">
            <path d="M574.005758,399.875085 C574.09355,394.845514 575.170194,391.98367 575.667786,390.140122 C576.51334,387.007396 583.230198,370.733027 599.673653,367.627877 C616.117107,364.522726 639.318666,365.091876 649.488878,365.269398 C659.65909,365.446919 659.159222,365.994245 661.484565,365.765318 C663.809908,365.536391 664.322848,364.211491 667.230953,362.904278 C670.799029,361.300405 675.857159,360.863142 677.542647,361.034901 C677.130326,362.040424 676.783916,362.539353 676.783916,363.338792 C676.783916,364.138231 677.088276,365.272078 677.542647,365.956387 C677.997017,366.640697 678.914717,367.201927 679.279589,367.174637 C679.647424,367.147124 680.057161,367.100537 680.539301,367.031936 C682.843859,366.704037 685.327977,365.342196 687.41942,363.703717 C689.776101,361.857445 692.904735,361.362261 695.188531,361.281965 C695.188531,362.416201 694.706102,363.642601 695.515581,365.536391 C696.32506,367.43018 696.486785,367.93022 696.715691,370.896887 C696.944597,373.863555 695.839243,377.482318 694.692808,378.801391 C693.546373,380.120465 690.997099,381.848183 688.942025,382.072854 C689.134653,383.711463 689.505707,386.509677 690.132082,387.793657 C690.758458,389.077637 691.213032,389.957251 694.448895,391.113594 C697.684759,392.269937 700.742742,392.323315 702.266899,392.349918 C703.791055,392.37652 703.813539,392.394344 704.453037,394.077391 C705.092536,395.760438 706.022902,402.404103 705.99957,403.740794 C705.976238,405.077485 706.186677,406.399653 703.760126,407.171059 C701.333575,407.942465 697.572852,409.427045 694.927938,411.281334 C692.283024,413.135622 690.543622,416.029501 688.942025,417.712088 C686.249908,420.540343 684.503109,421.922879 683.141954,423.038812 C681.780798,424.154744 680.66549,424.660907 679.97254,427.409206 C679.279589,430.157505 678.8907,433.939417 678.263792,437.692021 C675.264817,440.687033 664.571643,440.512519 662.556051,437.692021 C661.764114,435.367606 660.937448,432.595903 659.614985,431.957777 C658.292521,431.31965 656.550131,430.135408 652.097709,430.942126 C647.645287,431.748844 640.09139,431.713409 631.833137,431.569263 C623.574884,431.425116 614.702952,430.203535 612.065921,430.157505 C609.428891,430.111476 606.114649,430.080191 604.713489,433.597515 C603.312328,437.114839 604.120951,435.0242 603.033999,437.692021 C600.259051,440.669042 589.86209,440.676551 586.819993,437.692021 C586.405336,434.455194 585.965149,431.957777 585.724799,430.492415 C585.484449,429.027053 584.601394,424.804595 583.000416,422.640675 C581.399438,420.476755 578.375922,417.36961 576.312477,412.826854 C574.840739,409.586765 573.917967,404.904655 574.005758,399.875085 Z" id="Icon"></path>
        </g>
    </g>
</svg>